# Tiled2Unity generated file. Do not modify by hand.
# Wavefront file for 'temp-map_mesh_0006.obj'

# Vertices (Count = 20)
v -11.52 -13.44 0
v -12.16 -13.44 0
v -12.16 -12.8 0
v -11.52 -12.8 0
v -12.16 -13.44 0
v -12.8 -13.44 0
v -12.8 -12.8 0
v -12.16 -12.8 0
v -12.8 -13.44 0
v -13.44 -13.44 0
v -13.44 -12.8 0
v -12.8 -12.8 0
v -13.44 -13.44 0
v -14.08 -13.44 0
v -14.08 -12.8 0
v -13.44 -12.8 0
v -14.08 -13.44 0
v -14.72 -13.44 0
v -14.72 -12.8 0
v -14.08 -12.8 0

# Texture cooridinates (Count = 13)
vt 0.9259259 0.45
vt 0.962963 0.45
vt 0.962963 0.5
vt 0.9259259 0.5
vt 1 0.45
vt 1 0.5
vt 0.9259259 0.4
vt 0.962963 0.4
vt 1 0.4
vt 0.962963 0.55
vt 1 0.55
vt 1 0.6
vt 0.962963 0.6

# Normal
vn 0 0 -1

# Mesh description
g temp-map_mesh_0006

# Faces
f 1/1/1 2/2/1 3/3/1 4/4/1
f 5/2/1 6/5/1 7/6/1 8/3/1
f 9/7/1 10/8/1 11/2/1 12/1/1
f 13/8/1 14/9/1 15/5/1 16/2/1
f 17/10/1 18/11/1 19/12/1 20/13/1

