# Tiled2Unity generated file. Do not modify by hand.
# Wavefront file for 'temp-map_mesh_0004.obj'

# Vertices (Count = 552)
v -5.12 -1.92 0
v -5.76 -1.92 0
v -5.76 -1.28 0
v -5.12 -1.28 0
v -5.76 -1.92 0
v -6.4 -1.92 0
v -6.4 -1.28 0
v -5.76 -1.28 0
v -7.68 -1.92 0
v -8.32 -1.92 0
v -8.32 -1.28 0
v -7.68 -1.28 0
v -8.32 -1.92 0
v -8.96 -1.92 0
v -8.96 -1.28 0
v -8.32 -1.28 0
v -5.12 -2.56 0
v -5.76 -2.56 0
v -5.76 -1.92 0
v -5.12 -1.92 0
v -5.76 -2.56 0
v -6.4 -2.56 0
v -6.4 -1.92 0
v -5.76 -1.92 0
v -7.68 -2.56 0
v -8.32 -2.56 0
v -8.32 -1.92 0
v -7.68 -1.92 0
v -8.32 -2.56 0
v -8.96 -2.56 0
v -8.96 -1.92 0
v -8.32 -1.92 0
v -10.88 -2.56 0
v -11.52 -2.56 0
v -11.52 -1.92 0
v -10.88 -1.92 0
v -14.72 -2.56 0
v -15.36 -2.56 0
v -15.36 -1.92 0
v -14.72 -1.92 0
v -15.36 -2.56 0
v -16 -2.56 0
v -16 -1.92 0
v -15.36 -1.92 0
v -20.48 -2.56 0
v -21.12 -2.56 0
v -21.12 -1.92 0
v -20.48 -1.92 0
v -26.24 -2.56 0
v -26.88 -2.56 0
v -26.88 -1.92 0
v -26.24 -1.92 0
v -26.88 -2.56 0
v -27.52 -2.56 0
v -27.52 -1.92 0
v -26.88 -1.92 0
v -2.56 -3.2 0
v -3.2 -3.2 0
v -3.2 -2.56 0
v -2.56 -2.56 0
v -3.2 -3.2 0
v -3.84 -3.2 0
v -3.84 -2.56 0
v -3.2 -2.56 0
v -14.72 -3.2 0
v -15.36 -3.2 0
v -15.36 -2.56 0
v -14.72 -2.56 0
v -15.36 -3.2 0
v -16 -3.2 0
v -16 -2.56 0
v -15.36 -2.56 0
v -26.24 -3.2 0
v -26.88 -3.2 0
v -26.88 -2.56 0
v -26.24 -2.56 0
v -26.88 -3.2 0
v -27.52 -3.2 0
v -27.52 -2.56 0
v -26.88 -2.56 0
v -2.56 -3.84 0
v -3.2 -3.84 0
v -3.2 -3.2 0
v -2.56 -3.2 0
v -3.2 -3.84 0
v -3.84 -3.84 0
v -3.84 -3.2 0
v -3.2 -3.2 0
v -29.44 -3.84 0
v -30.08 -3.84 0
v -30.08 -3.2 0
v -29.44 -3.2 0
v -9.599999 -4.48 0
v -10.24 -4.48 0
v -10.24 -3.84 0
v -9.599999 -3.84 0
v -21.12 -4.48 0
v -21.76 -4.48 0
v -21.76 -3.84 0
v -21.12 -3.84 0
v -21.76 -4.48 0
v -22.4 -4.48 0
v -22.4 -3.84 0
v -21.76 -3.84 0
v -30.08 -4.48 0
v -30.72 -4.48 0
v -30.72 -3.84 0
v -30.08 -3.84 0
v -5.12 -5.12 0
v -5.76 -5.12 0
v -5.76 -4.48 0
v -5.12 -4.48 0
v -12.8 -5.12 0
v -13.44 -5.12 0
v -13.44 -4.48 0
v -12.8 -4.48 0
v -21.12 -5.12 0
v -21.76 -5.12 0
v -21.76 -4.48 0
v -21.12 -4.48 0
v -21.76 -5.12 0
v -22.4 -5.12 0
v -22.4 -4.48 0
v -21.76 -4.48 0
v -25.6 -5.12 0
v -26.24 -5.12 0
v -26.24 -4.48 0
v -25.6 -4.48 0
v -26.24 -5.12 0
v -26.88 -5.12 0
v -26.88 -4.48 0
v -26.24 -4.48 0
v -6.4 -5.76 0
v -7.04 -5.76 0
v -7.04 -5.12 0
v -6.4 -5.12 0
v -25.6 -5.76 0
v -26.24 -5.76 0
v -26.24 -5.12 0
v -25.6 -5.12 0
v -26.24 -5.76 0
v -26.88 -5.76 0
v -26.88 -5.12 0
v -26.24 -5.12 0
v -26.88 -5.76 0
v -27.52 -5.76 0
v -27.52 -5.12 0
v -26.88 -5.12 0
v -1.92 -6.4 0
v -2.56 -6.4 0
v -2.56 -5.76 0
v -1.92 -5.76 0
v -10.88 -6.4 0
v -11.52 -6.4 0
v -11.52 -5.76 0
v -10.88 -5.76 0
v -11.52 -6.4 0
v -12.16 -6.4 0
v -12.16 -5.76 0
v -11.52 -5.76 0
v -14.72 -6.4 0
v -15.36 -6.4 0
v -15.36 -5.76 0
v -14.72 -5.76 0
v -10.88 -7.04 0
v -11.52 -7.04 0
v -11.52 -6.4 0
v -10.88 -6.4 0
v -11.52 -7.04 0
v -12.16 -7.04 0
v -12.16 -6.4 0
v -11.52 -6.4 0
v -17.92 -7.04 0
v -18.56 -7.04 0
v -18.56 -6.4 0
v -17.92 -6.4 0
v -19.84 -7.04 0
v -20.48 -7.04 0
v -20.48 -6.4 0
v -19.84 -6.4 0
v -3.2 -8.96 0
v -3.84 -8.96 0
v -3.84 -8.32 0
v -3.2 -8.32 0
v -3.84 -8.96 0
v -4.48 -8.96 0
v -4.48 -8.32 0
v -3.84 -8.32 0
v -5.12 -8.96 0
v -5.76 -8.96 0
v -5.76 -8.32 0
v -5.12 -8.32 0
v -3.2 -9.599999 0
v -3.84 -9.599999 0
v -3.84 -8.96 0
v -3.2 -8.96 0
v -3.84 -9.599999 0
v -4.48 -9.599999 0
v -4.48 -8.96 0
v -3.84 -8.96 0
v -23.04 -9.599999 0
v -23.68 -9.599999 0
v -23.68 -8.96 0
v -23.04 -8.96 0
v -23.68 -9.599999 0
v -24.32 -9.599999 0
v -24.32 -8.96 0
v -23.68 -8.96 0
v -29.44 -9.599999 0
v -30.08 -9.599999 0
v -30.08 -8.96 0
v -29.44 -8.96 0
v -23.04 -10.24 0
v -23.68 -10.24 0
v -23.68 -9.599999 0
v -23.04 -9.599999 0
v -23.68 -10.24 0
v -24.32 -10.24 0
v -24.32 -9.599999 0
v -23.68 -9.599999 0
v -30.08 -10.24 0
v -30.72 -10.24 0
v -30.72 -9.599999 0
v -30.08 -9.599999 0
v -28.8 -13.44 0
v -29.44 -13.44 0
v -29.44 -12.8 0
v -28.8 -12.8 0
v -29.44 -13.44 0
v -30.08 -13.44 0
v -30.08 -12.8 0
v -29.44 -12.8 0
v 0 -14.08 0
v -0.64 -14.08 0
v -0.64 -13.44 0
v 0 -13.44 0
v -1.28 -14.08 0
v -1.92 -14.08 0
v -1.92 -13.44 0
v -1.28 -13.44 0
v -2.56 -14.08 0
v -3.2 -14.08 0
v -3.2 -13.44 0
v -2.56 -13.44 0
v -3.84 -14.08 0
v -4.48 -14.08 0
v -4.48 -13.44 0
v -3.84 -13.44 0
v -5.12 -14.08 0
v -5.76 -14.08 0
v -5.76 -13.44 0
v -5.12 -13.44 0
v -6.4 -14.08 0
v -7.04 -14.08 0
v -7.04 -13.44 0
v -6.4 -13.44 0
v -7.68 -14.08 0
v -8.32 -14.08 0
v -8.32 -13.44 0
v -7.68 -13.44 0
v -8.96 -14.08 0
v -9.599999 -14.08 0
v -9.599999 -13.44 0
v -8.96 -13.44 0
v -28.8 -14.08 0
v -29.44 -14.08 0
v -29.44 -13.44 0
v -28.8 -13.44 0
v -29.44 -14.08 0
v -30.08 -14.08 0
v -30.08 -13.44 0
v -29.44 -13.44 0
v 0 -16 0
v -0.64 -16 0
v -0.64 -15.36 0
v 0 -15.36 0
v -1.28 -16 0
v -1.92 -16 0
v -1.92 -15.36 0
v -1.28 -15.36 0
v -2.56 -16 0
v -3.2 -16 0
v -3.2 -15.36 0
v -2.56 -15.36 0
v -3.84 -16 0
v -4.48 -16 0
v -4.48 -15.36 0
v -3.84 -15.36 0
v -5.12 -16 0
v -5.76 -16 0
v -5.76 -15.36 0
v -5.12 -15.36 0
v -6.4 -16 0
v -7.04 -16 0
v -7.04 -15.36 0
v -6.4 -15.36 0
v -7.68 -16 0
v -8.32 -16 0
v -8.32 -15.36 0
v -7.68 -15.36 0
v -8.96 -16 0
v -9.599999 -16 0
v -9.599999 -15.36 0
v -8.96 -15.36 0
v -7.68 -17.28 0
v -8.32 -17.28 0
v -8.32 -16.64 0
v -7.68 -16.64 0
v -24.32 -17.28 0
v -24.96 -17.28 0
v -24.96 -16.64 0
v -24.32 -16.64 0
v -24.96 -17.28 0
v -25.6 -17.28 0
v -25.6 -16.64 0
v -24.96 -16.64 0
v -7.68 -17.92 0
v -8.32 -17.92 0
v -8.32 -17.28 0
v -7.68 -17.28 0
v -24.32 -17.92 0
v -24.96 -17.92 0
v -24.96 -17.28 0
v -24.32 -17.28 0
v -24.96 -17.92 0
v -25.6 -17.92 0
v -25.6 -17.28 0
v -24.96 -17.28 0
v -1.92 -18.56 0
v -2.56 -18.56 0
v -2.56 -17.92 0
v -1.92 -17.92 0
v -2.56 -19.2 0
v -3.2 -19.2 0
v -3.2 -18.56 0
v -2.56 -18.56 0
v -3.2 -19.2 0
v -3.84 -19.2 0
v -3.84 -18.56 0
v -3.2 -18.56 0
v -6.4 -19.2 0
v -7.04 -19.2 0
v -7.04 -18.56 0
v -6.4 -18.56 0
v -2.56 -19.84 0
v -3.2 -19.84 0
v -3.2 -19.2 0
v -2.56 -19.2 0
v -3.2 -19.84 0
v -3.84 -19.84 0
v -3.84 -19.2 0
v -3.2 -19.2 0
v -27.52 -19.84 0
v -28.16 -19.84 0
v -28.16 -19.2 0
v -27.52 -19.2 0
v -28.16 -19.84 0
v -28.8 -19.84 0
v -28.8 -19.2 0
v -28.16 -19.2 0
v -29.44 -19.84 0
v -30.08 -19.84 0
v -30.08 -19.2 0
v -29.44 -19.2 0
v -27.52 -20.48 0
v -28.16 -20.48 0
v -28.16 -19.84 0
v -27.52 -19.84 0
v -28.16 -20.48 0
v -28.8 -20.48 0
v -28.8 -19.84 0
v -28.16 -19.84 0
v -17.28 -21.76 0
v -17.92 -21.76 0
v -17.92 -21.12 0
v -17.28 -21.12 0
v -24.32 -21.76 0
v -24.96 -21.76 0
v -24.96 -21.12 0
v -24.32 -21.12 0
v -1.28 -22.4 0
v -1.92 -22.4 0
v -1.92 -21.76 0
v -1.28 -21.76 0
v -1.92 -22.4 0
v -2.56 -22.4 0
v -2.56 -21.76 0
v -1.92 -21.76 0
v -2.56 -22.4 0
v -3.2 -22.4 0
v -3.2 -21.76 0
v -2.56 -21.76 0
v -8.32 -22.4 0
v -8.96 -22.4 0
v -8.96 -21.76 0
v -8.32 -21.76 0
v -9.599999 -22.4 0
v -10.24 -22.4 0
v -10.24 -21.76 0
v -9.599999 -21.76 0
v -27.52 -22.4 0
v -28.16 -22.4 0
v -28.16 -21.76 0
v -27.52 -21.76 0
v -28.16 -22.4 0
v -28.8 -22.4 0
v -28.8 -21.76 0
v -28.16 -21.76 0
v -1.28 -23.04 0
v -1.92 -23.04 0
v -1.92 -22.4 0
v -1.28 -22.4 0
v -1.92 -23.04 0
v -2.56 -23.04 0
v -2.56 -22.4 0
v -1.92 -22.4 0
v -2.56 -23.04 0
v -3.2 -23.04 0
v -3.2 -22.4 0
v -2.56 -22.4 0
v -24.32 -23.04 0
v -24.96 -23.04 0
v -24.96 -22.4 0
v -24.32 -22.4 0
v -26.88 -23.04 0
v -27.52 -23.04 0
v -27.52 -22.4 0
v -26.88 -22.4 0
v -27.52 -23.04 0
v -28.16 -23.04 0
v -28.16 -22.4 0
v -27.52 -22.4 0
v -28.16 -23.04 0
v -28.8 -23.04 0
v -28.8 -22.4 0
v -28.16 -22.4 0
v -27.52 -23.68 0
v -28.16 -23.68 0
v -28.16 -23.04 0
v -27.52 -23.04 0
v -28.16 -23.68 0
v -28.8 -23.68 0
v -28.8 -23.04 0
v -28.16 -23.04 0
v -9.599999 -24.32 0
v -10.24 -24.32 0
v -10.24 -23.68 0
v -9.599999 -23.68 0
v -12.8 -24.32 0
v -13.44 -24.32 0
v -13.44 -23.68 0
v -12.8 -23.68 0
v -13.44 -24.32 0
v -14.08 -24.32 0
v -14.08 -23.68 0
v -13.44 -23.68 0
v -1.92 -24.96 0
v -2.56 -24.96 0
v -2.56 -24.32 0
v -1.92 -24.32 0
v -2.56 -24.96 0
v -3.2 -24.96 0
v -3.2 -24.32 0
v -2.56 -24.32 0
v -12.8 -24.96 0
v -13.44 -24.96 0
v -13.44 -24.32 0
v -12.8 -24.32 0
v -13.44 -24.96 0
v -14.08 -24.96 0
v -14.08 -24.32 0
v -13.44 -24.32 0
v -26.88 -24.96 0
v -27.52 -24.96 0
v -27.52 -24.32 0
v -26.88 -24.32 0
v -1.92 -25.6 0
v -2.56 -25.6 0
v -2.56 -24.96 0
v -1.92 -24.96 0
v -2.56 -25.6 0
v -3.2 -25.6 0
v -3.2 -24.96 0
v -2.56 -24.96 0
v -7.04 -25.6 0
v -7.68 -25.6 0
v -7.68 -24.96 0
v -7.04 -24.96 0
v -21.76 -25.6 0
v -22.4 -25.6 0
v -22.4 -24.96 0
v -21.76 -24.96 0
v -29.44 -25.6 0
v -30.08 -25.6 0
v -30.08 -24.96 0
v -29.44 -24.96 0
v -3.2 -26.24 0
v -3.84 -26.24 0
v -3.84 -25.6 0
v -3.2 -25.6 0
v -3.84 -26.24 0
v -4.48 -26.24 0
v -4.48 -25.6 0
v -3.84 -25.6 0
v -4.48 -26.24 0
v -5.12 -26.24 0
v -5.12 -25.6 0
v -4.48 -25.6 0
v -5.12 -26.24 0
v -5.76 -26.24 0
v -5.76 -25.6 0
v -5.12 -25.6 0
v -26.88 -26.24 0
v -27.52 -26.24 0
v -27.52 -25.6 0
v -26.88 -25.6 0
v -4.48 -26.88 0
v -5.12 -26.88 0
v -5.12 -26.24 0
v -4.48 -26.24 0
v -5.12 -26.88 0
v -5.76 -26.88 0
v -5.76 -26.24 0
v -5.12 -26.24 0
v -5.76 -26.88 0
v -6.4 -26.88 0
v -6.4 -26.24 0
v -5.76 -26.24 0
v -16 -26.88 0
v -16.64 -26.88 0
v -16.64 -26.24 0
v -16 -26.24 0
v -18.56 -30.08 0
v -19.2 -30.08 0
v -19.2 -29.44 0
v -18.56 -29.44 0
v -26.24 -30.08 0
v -26.88 -30.08 0
v -26.88 -29.44 0
v -26.24 -29.44 0
v -1.28 -30.72 0
v -1.92 -30.72 0
v -1.92 -30.08 0
v -1.28 -30.08 0
v -8.96 -30.72 0
v -9.599999 -30.72 0
v -9.599999 -30.08 0
v -8.96 -30.08 0
v -30.72 -30.72 0
v -31.36 -30.72 0
v -31.36 -30.08 0
v -30.72 -30.08 0

# Texture cooridinates (Count = 38)
vt 0.03703704 0.95
vt 0.07407407 0.95
vt 0.07407407 1
vt 0.03703704 1
vt 0.7777778 0.65
vt 0.8148148 0.65
vt 0.8148148 0.7
vt 0.7777778 0.7
vt 0.8518519 0.65
vt 0.8518519 0.7
vt 0.7777778 0.6
vt 0.8148148 0.6
vt 0.8518519 0.6
vt 0.7407407 0.6
vt 0.7407407 0.65
vt 0.6666667 0.65
vt 0.7037037 0.65
vt 0.7037037 0.7
vt 0.6666667 0.7
vt 0.7407407 0.7
vt 0.8888889 0.6
vt 0.8888889 0.65
vt 0.6666667 0.6
vt 0.7037037 0.6
vt 0.7037037 0.55
vt 0.7407407 0.55
vt 0.6666667 0.45
vt 0.7037037 0.45
vt 0.7037037 0.5
vt 0.6666667 0.5
vt 0.7777778 0.55
vt 0.8148148 0.55
vt 0.8888889 0.7
vt 0.6666667 0.55
vt 0.1111111 0.95
vt 0.1111111 1
vt 0.1481481 0.95
vt 0.1481481 1

# Normal
vn 0 0 -1

# Mesh description
g temp-map_mesh_0004

# Faces
f 1/1/1 2/2/1 3/3/1 4/4/1
f 5/1/1 6/2/1 7/3/1 8/4/1
f 9/5/1 10/6/1 11/7/1 12/8/1
f 13/6/1 14/9/1 15/10/1 16/7/1
f 17/1/1 18/2/1 19/3/1 20/4/1
f 21/1/1 22/2/1 23/3/1 24/4/1
f 25/11/1 26/12/1 27/6/1 28/5/1
f 29/12/1 30/13/1 31/9/1 32/6/1
f 33/14/1 34/11/1 35/5/1 36/15/1
f 37/16/1 38/17/1 39/18/1 40/19/1
f 41/17/1 42/15/1 43/20/1 44/18/1
f 45/13/1 46/21/1 47/22/1 48/9/1
f 49/16/1 50/17/1 51/18/1 52/19/1
f 53/17/1 54/15/1 55/20/1 56/18/1
f 57/16/1 58/17/1 59/18/1 60/19/1
f 61/17/1 62/15/1 63/20/1 64/18/1
f 65/23/1 66/24/1 67/17/1 68/16/1
f 69/24/1 70/14/1 71/15/1 72/17/1
f 73/23/1 74/24/1 75/17/1 76/16/1
f 77/24/1 78/14/1 79/15/1 80/17/1
f 81/23/1 82/24/1 83/17/1 84/16/1
f 85/24/1 86/14/1 87/15/1 88/17/1
f 89/13/1 90/21/1 91/22/1 92/9/1
f 93/25/1 94/26/1 95/14/1 96/24/1
f 97/5/1 98/6/1 99/7/1 100/8/1
f 101/6/1 102/9/1 103/10/1 104/7/1
f 105/25/1 106/26/1 107/14/1 108/24/1
f 109/27/1 110/28/1 111/29/1 112/30/1
f 113/31/1 114/32/1 115/12/1 116/11/1
f 117/11/1 118/12/1 119/6/1 120/5/1
f 121/12/1 122/13/1 123/9/1 124/6/1
f 125/1/1 126/2/1 127/3/1 128/4/1
f 129/1/1 130/2/1 131/3/1 132/4/1
f 133/13/1 134/21/1 135/22/1 136/9/1
f 137/1/1 138/2/1 139/3/1 140/4/1
f 141/1/1 142/2/1 143/3/1 144/4/1
f 145/1/1 146/2/1 147/3/1 148/4/1
f 149/14/1 150/11/1 151/5/1 152/15/1
f 153/5/1 154/6/1 155/7/1 156/8/1
f 157/6/1 158/9/1 159/10/1 160/7/1
f 161/14/1 162/11/1 163/5/1 164/15/1
f 165/11/1 166/12/1 167/6/1 168/5/1
f 169/12/1 170/13/1 171/9/1 172/6/1
f 173/9/1 174/22/1 175/33/1 176/10/1
f 177/14/1 178/11/1 179/5/1 180/15/1
f 181/5/1 182/6/1 183/7/1 184/8/1
f 185/6/1 186/9/1 187/10/1 188/7/1
f 189/14/1 190/11/1 191/5/1 192/15/1
f 193/11/1 194/12/1 195/6/1 196/5/1
f 197/12/1 198/13/1 199/9/1 200/6/1
f 201/5/1 202/6/1 203/7/1 204/8/1
f 205/6/1 206/9/1 207/10/1 208/7/1
f 209/14/1 210/11/1 211/5/1 212/15/1
f 213/11/1 214/12/1 215/6/1 216/5/1
f 217/12/1 218/13/1 219/9/1 220/6/1
f 221/31/1 222/32/1 223/12/1 224/11/1
f 225/5/1 226/6/1 227/7/1 228/8/1
f 229/6/1 230/9/1 231/10/1 232/7/1
f 233/9/1 234/22/1 235/33/1 236/10/1
f 237/9/1 238/22/1 239/33/1 240/10/1
f 241/9/1 242/22/1 243/33/1 244/10/1
f 245/9/1 246/22/1 247/33/1 248/10/1
f 249/9/1 250/22/1 251/33/1 252/10/1
f 253/9/1 254/22/1 255/33/1 256/10/1
f 257/9/1 258/22/1 259/33/1 260/10/1
f 261/9/1 262/22/1 263/33/1 264/10/1
f 265/11/1 266/12/1 267/6/1 268/5/1
f 269/12/1 270/13/1 271/9/1 272/6/1
f 273/9/1 274/22/1 275/33/1 276/10/1
f 277/9/1 278/22/1 279/33/1 280/10/1
f 281/9/1 282/22/1 283/33/1 284/10/1
f 285/9/1 286/22/1 287/33/1 288/10/1
f 289/9/1 290/22/1 291/33/1 292/10/1
f 293/9/1 294/22/1 295/33/1 296/10/1
f 297/9/1 298/22/1 299/33/1 300/10/1
f 301/9/1 302/22/1 303/33/1 304/10/1
f 305/14/1 306/11/1 307/5/1 308/15/1
f 309/5/1 310/6/1 311/7/1 312/8/1
f 313/6/1 314/9/1 315/10/1 316/7/1
f 317/14/1 318/11/1 319/5/1 320/15/1
f 321/11/1 322/12/1 323/6/1 324/5/1
f 325/12/1 326/13/1 327/9/1 328/6/1
f 329/13/1 330/21/1 331/22/1 332/9/1
f 333/16/1 334/17/1 335/18/1 336/19/1
f 337/17/1 338/15/1 339/20/1 340/18/1
f 341/13/1 342/21/1 343/22/1 344/9/1
f 345/23/1 346/24/1 347/17/1 348/16/1
f 349/24/1 350/14/1 351/15/1 352/17/1
f 353/16/1 354/17/1 355/18/1 356/19/1
f 357/17/1 358/15/1 359/20/1 360/18/1
f 361/13/1 362/21/1 363/22/1 364/9/1
f 365/23/1 366/24/1 367/17/1 368/16/1
f 369/24/1 370/14/1 371/15/1 372/17/1
f 373/9/1 374/22/1 375/33/1 376/10/1
f 377/34/1 378/25/1 379/24/1 380/23/1
f 381/2/1 382/35/1 383/36/1 384/3/1
f 385/2/1 386/35/1 387/36/1 388/3/1
f 389/2/1 390/35/1 391/36/1 392/3/1
f 393/14/1 394/11/1 395/5/1 396/15/1
f 397/31/1 398/32/1 399/12/1 400/11/1
f 401/1/1 402/2/1 403/3/1 404/4/1
f 405/1/1 406/2/1 407/3/1 408/4/1
f 409/2/1 410/35/1 411/36/1 412/3/1
f 413/2/1 414/35/1 415/36/1 416/3/1
f 417/2/1 418/35/1 419/36/1 420/3/1
f 421/13/1 422/21/1 423/22/1 424/9/1
f 425/1/1 426/2/1 427/3/1 428/4/1
f 429/1/1 430/2/1 431/3/1 432/4/1
f 433/1/1 434/2/1 435/3/1 436/4/1
f 437/1/1 438/2/1 439/3/1 440/4/1
f 441/1/1 442/2/1 443/3/1 444/4/1
f 445/13/1 446/21/1 447/22/1 448/9/1
f 449/16/1 450/17/1 451/18/1 452/19/1
f 453/17/1 454/15/1 455/20/1 456/18/1
f 457/5/1 458/6/1 459/7/1 460/8/1
f 461/6/1 462/9/1 463/10/1 464/7/1
f 465/23/1 466/24/1 467/17/1 468/16/1
f 469/24/1 470/14/1 471/15/1 472/17/1
f 473/13/1 474/21/1 475/22/1 476/9/1
f 477/11/1 478/12/1 479/6/1 480/5/1
f 481/12/1 482/13/1 483/9/1 484/6/1
f 485/13/1 486/21/1 487/22/1 488/9/1
f 489/9/1 490/22/1 491/33/1 492/10/1
f 493/34/1 494/25/1 495/24/1 496/23/1
f 497/31/1 498/32/1 499/12/1 500/11/1
f 501/35/1 502/37/1 503/38/1 504/36/1
f 505/35/1 506/37/1 507/38/1 508/36/1
f 509/35/1 510/37/1 511/38/1 512/36/1
f 513/31/1 514/32/1 515/12/1 516/11/1
f 517/35/1 518/37/1 519/38/1 520/36/1
f 521/35/1 522/37/1 523/38/1 524/36/1
f 525/35/1 526/37/1 527/38/1 528/36/1
f 529/9/1 530/22/1 531/33/1 532/10/1
f 533/30/1 534/29/1 535/25/1 536/34/1
f 537/26/1 538/31/1 539/11/1 540/14/1
f 541/30/1 542/29/1 543/25/1 544/34/1
f 545/26/1 546/31/1 547/11/1 548/14/1
f 549/30/1 550/29/1 551/25/1 552/34/1

