# Tiled2Unity generated file. Do not modify by hand.
# Wavefront file for 'temp-map_mesh_0003.obj'

# Vertices (Count = 48)
v -12.16 -10.24 0
v -12.8 -10.24 0
v -12.8 -9.599999 0
v -12.16 -9.599999 0
v -12.8 -10.24 0
v -13.44 -10.24 0
v -13.44 -9.599999 0
v -12.8 -9.599999 0
v -19.2 -10.24 0
v -19.84 -10.24 0
v -19.84 -9.599999 0
v -19.2 -9.599999 0
v -19.84 -10.24 0
v -20.48 -10.24 0
v -20.48 -9.599999 0
v -19.84 -9.599999 0
v -10.24 -14.72 0
v -10.88 -14.72 0
v -10.88 -14.08 0
v -10.24 -14.08 0
v -21.76 -14.72 0
v -22.4 -14.72 0
v -22.4 -14.08 0
v -21.76 -14.08 0
v -10.24 -15.36 0
v -10.88 -15.36 0
v -10.88 -14.72 0
v -10.24 -14.72 0
v -21.76 -15.36 0
v -22.4 -15.36 0
v -22.4 -14.72 0
v -21.76 -14.72 0
v -11.52 -19.84 0
v -12.16 -19.84 0
v -12.16 -19.2 0
v -11.52 -19.2 0
v -12.16 -19.84 0
v -12.8 -19.84 0
v -12.8 -19.2 0
v -12.16 -19.2 0
v -19.2 -19.84 0
v -19.84 -19.84 0
v -19.84 -19.2 0
v -19.2 -19.2 0
v -19.84 -19.84 0
v -20.48 -19.84 0
v -20.48 -19.2 0
v -19.84 -19.2 0

# Texture cooridinates (Count = 14)
vt 0.1481481 0.1
vt 0.1851852 0.1
vt 0.1851852 0.15
vt 0.1481481 0.15
vt 0.6666667 0.75
vt 0.7037037 0.75
vt 0.7037037 0.8
vt 0.6666667 0.8
vt 0.7407407 0.75
vt 0.7407407 0.8
vt 0.1851852 0
vt 0.2222222 0
vt 0.2222222 0.05000001
vt 0.1851852 0.05000001

# Normal
vn 0 0 -1

# Mesh description
g temp-map_mesh_0003

# Faces
f 1/1/1 2/2/1 3/3/1 4/4/1
f 5/1/1 6/2/1 7/3/1 8/4/1
f 9/1/1 10/2/1 11/3/1 12/4/1
f 13/1/1 14/2/1 15/3/1 16/4/1
f 17/5/1 18/6/1 19/7/1 20/8/1
f 21/6/1 22/9/1 23/10/1 24/7/1
f 25/5/1 26/6/1 27/7/1 28/8/1
f 29/6/1 30/9/1 31/10/1 32/7/1
f 33/11/1 34/12/1 35/13/1 36/14/1
f 37/11/1 38/12/1 39/13/1 40/14/1
f 41/11/1 42/12/1 43/13/1 44/14/1
f 45/11/1 46/12/1 47/13/1 48/14/1

